# xmcd
# 
# Track frame offsets:
#     150
#     10562
#     22150
#     31792
#     43397
#     51800
#     63665
#     75250
#     87732
#     97912
#     111457
#     120872
#     132660
#     144337
# 
# Disc length: 2068
# 
# Revision: 0
# Processed by: cddbd v1.5.2PL0 Copyright (c) Steve Scherf et al.
# Submitted via: fre:ac v1.0.17
# 
DISCID=b708120e
DTITLE=Beatles - Beatles For Sale 
DYEAR=1964
DGENRE=Pop
TTITLE0=No Reply
TTITLE1=I'm A Loser
TTITLE2=Baby's In Black
TTITLE3=Rock And Roll Music
TTITLE4=I'll Follow The Sun
TTITLE5=Mr. Moonlight
TTITLE6=Kansas City/Hey Hey Hey Hey
TTITLE7=Eight Days A Week
TTITLE8=Words Of Love
TTITLE9=Honey Don't
TTITLE10=Every Little Thing
TTITLE11=I Don't Want To Spoil The Party
TTITLE12=What You're Doing
TTITLE13=Everybody's Trying To Be My Baby
EXTD=
EXTT0=
EXTT1=
EXTT2=
EXTT3=
EXTT4=
EXTT5=
EXTT6=
EXTT7=
EXTT8=
EXTT9=
EXTT10=
EXTT11=
EXTT12=
EXTT13=
PLAYORDER=
